<?xml version="1.0" encoding="utf-8"?>
<!-- Generator: Adobe Illustrator 22.1.0, SVG Export Plug-In . SVG Version: 6.00 Build 0)  -->
<svg version="1.1" id="Layer_1" xmlns="http://www.w3.org/2000/svg" xmlns:xlink="http://www.w3.org/1999/xlink" x="0px" y="0px"
	 viewBox="0 0 707.8 707.8" style="enable-background:new 0 0 707.8 707.8;" xml:space="preserve">
<style type="text/css">
	.st0{fill:url(#SVGID_1_);}
	.st1{fill:#FFF08A;}
	.st2{fill:#FFFFFF;}
	.st3{fill:#BDBDBD;}
	.st4{fill:none;stroke:#FFF494;stroke-width:20;stroke-miterlimit:10;}
	.st5{fill:#94E8FF;}
	.st6{fill:#FFFFFF;stroke:#BDBDBD;stroke-width:10;stroke-miterlimit:10;}
	.st7{fill:none;stroke:#BDBDBD;stroke-width:10;stroke-miterlimit:10;}
	.st8{fill:none;stroke:#000000;stroke-miterlimit:10;}
	.st9{fill:url(#SVGID_2_);}
	.st10{fill:none;stroke:#AAB1FF;stroke-width:20;stroke-miterlimit:10;}
	.st11{fill:none;stroke:#FFF494;stroke-width:10;stroke-miterlimit:10;}
	.st12{fill:#FFFFFF;stroke:#FFF494;stroke-width:20;stroke-miterlimit:10;}
	.st13{fill:#7FEBFF;}
	.st14{fill:#FFFFFF;stroke:#000000;stroke-miterlimit:10;}
	.st15{fill:url(#SVGID_3_);stroke:#FFFFFF;stroke-miterlimit:10;}
	.st16{fill:url(#SVGID_4_);stroke:#FFFFFF;stroke-miterlimit:10;}
	.st17{fill:none;}
	.st18{fill:url(#SVGID_5_);stroke:#FFFFFF;stroke-miterlimit:10;}
	.st19{fill:url(#SVGID_6_);}
	.st20{opacity:0.7;fill:#4D4D4D;enable-background:new    ;}
	.st21{fill:url(#SVGID_7_);}
	.st22{fill:url(#SVGID_8_);}
	.st23{fill:url(#SVGID_9_);}
	.st24{fill:url(#SVGID_10_);}
	.st25{fill:url(#SVGID_11_);}
	.st26{fill:url(#SVGID_12_);}
	.st27{fill:url(#SVGID_13_);}
	.st28{fill:url(#SVGID_14_);}
	.st29{font-family:'Ubuntu-Bold';}
	.st30{font-size:54.6828px;}
	.st31{fill:none;stroke:#FF5477;stroke-width:20;stroke-miterlimit:10;}
</style>
<linearGradient id="SVGID_1_" gradientUnits="userSpaceOnUse" x1="442.4061" y1="-411.0883" x2="485.8116" y2="-359.3597" gradientTransform="matrix(1 0 0 -1 0 -474.3245)">
	<stop  offset="0" style="stop-color:#D470F1"/>
	<stop  offset="1" style="stop-color:#FF5477"/>
</linearGradient>
<path class="st0" d="M490-111.5v88.2l-44.1-44.1l0,0l-44.1-44.1h28.1c-0.1,0.9-0.1,1.8-0.1,2.7c0,6.3,1.6,11.2,4.8,14.6
	c3.2,3.4,7.9,5.1,14.1,5.1c2.9,0,5.4-0.3,7.6-0.9s3.9-1.2,5.1-2l-2.4-6.8c-0.5,0.2-1,0.5-1.6,0.7c-0.6,0.3-1.3,0.5-2,0.7
	c-0.8,0.2-1.6,0.4-2.6,0.5s-2.1,0.2-3.3,0.2c-2,0-3.6-0.3-5-1c-1.4-0.6-2.5-1.5-3.4-2.6s-1.5-2.4-1.9-3.9s-0.6-3.2-0.6-4.9
	c0-0.9,0.1-1.7,0.2-2.5L490-111.5L490-111.5z"/>
<g>
	<circle class="st1" cx="-4510.6" cy="-1624.3" r="175.7"/>
	<polygon class="st2" points="-4510.6,-1624.3 -4323.4,-1516.2 -4323.4,-1732.4 	"/>
	<ellipse class="st3" cx="-4490.8" cy="-1745" rx="14.9" ry="18.5"/>
</g>
<circle class="st4" cx="-2516.3" cy="-1109.7" r="424.8"/>
<g>
	<path class="st5" d="M-4008.8-1530.5h-199.3v-100c0-54.8,44.4-99.2,99.2-99.2l0,0c55.3,0,100,44.8,100,100L-4008.8-1530.5
		L-4008.8-1530.5z"/>
	<rect x="-4186.1" y="-1551.7" class="st2" width="21.6" height="32.8"/>
	<rect x="-4049.5" y="-1551.7" class="st2" width="21.6" height="32.8"/>
	<rect x="-4093.7" y="-1551.7" class="st2" width="21.6" height="32.8"/>
	<rect x="-4137.9" y="-1551.7" class="st2" width="21.6" height="32.8"/>
	<path class="st6" d="M-4041.9-1630.2h-28.3v-28.3c0-7.8,6.3-14.2,14.2-14.2l0,0c7.8,0,14.2,6.3,14.2,14.2v28.3H-4041.9z"/>
	<path class="st6" d="M-4123.7-1630.2h-28.3v-28.3c0-7.8,6.3-14.2,14.2-14.2l0,0c7.8,0,14.2,6.3,14.2,14.2v28.3H-4123.7z"/>
	<polyline class="st7" points="-4159.9,-1581.6 -4139.1,-1602.4 -4117.5,-1580.7 -4094.9,-1603.3 -4073,-1581.3 -4051.5,-1602.8 
		-4027.5,-1578.8 	"/>
</g>
<rect x="-4324.3" y="-701.4" class="st8" width="40.4" height="40.4"/>
<rect x="-4364.8" y="-661" class="st8" width="80.9" height="80.9"/>
<rect x="-4486.1" y="-701.4" class="st8" width="121.3" height="121.3"/>
<linearGradient id="SVGID_2_" gradientUnits="userSpaceOnUse" x1="-1660.9907" y1="-699.1648" x2="-1723.4276" y2="-624.7556" gradientTransform="matrix(1 0 0 -1 0 -474.3245)">
	<stop  offset="0" style="stop-color:#D470F1"/>
	<stop  offset="1" style="stop-color:#FF5477"/>
</linearGradient>
<polygon class="st9" points="-1606.5,154.1 -1727.8,280.9 -1727.8,154.1 "/>
<rect x="-4486.1" y="-903.6" class="st8" width="202.2" height="202.2"/>
<rect x="-4283.4" y="-903.6" class="st8" width="323.5" height="323.5"/>
<rect x="-4364.8" y="-701.4" class="st8" width="40.4" height="40.4"/>
<ellipse transform="matrix(0.7071 -0.7071 0.7071 0.7071 -682.9396 -3131.5623)" class="st8" cx="-4121.6" cy="-741.4" rx="161.3" ry="161.3"/>
<path class="st10" d="M-3364-1510.2c0-34.1,27.7-61.8,61.8-61.8l0,0c32.9,0,59.5,26.7,59.5,59.5"/>
<circle class="st10" cx="-3303.3" cy="-1601.6" r="161.3"/>
<circle class="st8" cx="-4384.7" cy="-802.9" r="101.8"/>
<circle class="st8" cx="-4425.1" cy="-640.6" r="60.5"/>
<circle class="st8" cx="-4324.2" cy="-620.4" r="40.3"/>
<circle class="st8" cx="-4344.6" cy="-681.2" r="20"/>
<path class="st10" d="M-3345.2-1640.8c0,11.1-9,20-20,20c-11.1,0-20-9-20-20"/>
<path class="st10" d="M-3219.5-1640.8c0,11.1-9,20-20,20c-11.1,0-20-9-20-20"/>
<g>
	<path class="st4" d="M-3788.1-1601.7h121.3v59.5c0,34.1-27.7,61.8-61.8,61.8l0,0c-32.9,0-59.5-26.7-59.5-59.5V-1601.7z"/>
	<polyline class="st4" points="-3794.9,-1691.9 -3782.2,-1653.5 -3820.6,-1640.8 	"/>
	<polyline class="st4" points="-3662,-1691.9 -3674.6,-1653.5 -3636.2,-1640.8 	"/>
	<circle class="st4" cx="-3725.4" cy="-1601.6" r="161.3"/>
	<line class="st11" x1="-3603.8" y1="-1772.7" x2="-3539.2" y2="-1808.4"/>
	<line class="st11" x1="-3589" y1="-1745.8" x2="-3524.4" y2="-1781.5"/>
	<line class="st11" x1="-3591" y1="-1806.8" x2="-3555.3" y2="-1742.1"/>
</g>
<circle class="st12" cx="-2375.6" cy="-1591.1" r="161.3"/>
<path class="st4" d="M-2434.7-1611.9l114.5,40l-19.6,56.2c-11.3,32.2-46.5,49.2-78.7,37.9l0,0c-31-10.8-47.4-44.8-36.6-75.8
	L-2434.7-1611.9z"/>
<polyline class="st4" points="-2411.4,-1699.2 -2412.2,-1658.8 -2452.6,-1659.5 "/>
<polyline class="st4" points="-2286,-1655.4 -2310.6,-1623.3 -2278.5,-1598.7 "/>
<line class="st11" x1="-2204.4" y1="-1712.5" x2="-2131.6" y2="-1724.8"/>
<line class="st11" x1="-2199.3" y1="-1682.2" x2="-2126.5" y2="-1694.6"/>
<line class="st11" x1="-2181" y1="-1740.4" x2="-2168.7" y2="-1667.6"/>
<rect x="-4486.1" y="-1429.7" class="st8" width="526.1" height="526.1"/>
<rect x="-3959.9" y="-1429.7" class="st8" width="849.6" height="849.6"/>
<circle class="st8" cx="-3535.1" cy="-1004.9" r="424.8"/>
<path class="st12" d="M-2810.6-1284l-40.7-70.5c-16.7-29-6.8-66.1,22.2-82.9l0,0c29-16.7,66.1-6.8,82.9,22.2l40.7,70.5
	c16.7,29,6.8,66.1-22.2,82.9l0,0C-2756.8-1245.1-2793.9-1255-2810.6-1284z"/>
<path class="st12" d="M-2260.4-1285.4l68.3-44.3c28.1-18.2,65.7-10.2,83.9,17.9l0,0c18.2,28.1,10.2,65.7-17.9,83.9l-68.3,44.3
	c-28.1,18.2-65.7,10.2-83.9-17.9l0,0C-2296.5-1229.6-2288.5-1267.2-2260.4-1285.4z"/>
<path class="st12" d="M-2727.8-668.9L-2727.8-668.9c-50.6,23.5-110.7,1.5-134.2-49.2l-51.1-110c-23.5-50.6-1.5-110.7,49.2-134.2l0,0
	c50.6-23.5,110.7-1.5,134.2,49.2l51.1,110C-2655.1-752.5-2677.1-692.4-2727.8-668.9z"/>
<path class="st12" d="M-2431.3-628.3L-2431.3-628.3c-49.8-25.2-69.8-86-44.6-135.8l54.7-108.3c25.2-49.8,86-69.8,135.8-44.6l0,0
	c49.8,25.2,69.8,86,44.6,135.8l-54.7,108.3C-2320.7-623.1-2381.5-603.1-2431.3-628.3z"/>
<path d="M-4322.6-223.2c0,9.2-1.1,17.4-3.4,24.7s-5.6,13.4-10,18.5c-4.4,5-9.8,8.9-16.3,11.6c-6.4,2.7-13.8,4-22.2,4
	c-7.4,0-15.2-1.1-23.2-3.2c0.2-2.2,0.3-4.4,0.6-6.6c0.2-2.2,0.5-4.4,0.7-6.5c0.2-1.3,0.6-2.4,1.4-3.2s2-1.2,3.6-1.2
	c1.4,0,3.2,0.3,5.5,1s5.4,1,9.2,1c5.1,0,9.6-0.8,13.5-2.3s7.3-3.9,10-7.1s4.8-7.3,6.2-12.4c1.4-5,2.1-11,2.1-17.9v-108.3h22.2
	L-4322.6-223.2L-4322.6-223.2z"/>
<path d="M-4258-227.9v61.6h-22.2v-164.8h48.6c10.4,0,19.5,1.2,27.2,3.6s14.1,5.8,19.1,10.3c5.1,4.4,8.8,9.8,11.3,16.1
	c2.5,6.3,3.7,13.3,3.7,21c0,7.7-1.3,14.7-4,21c-2.7,6.4-6.6,11.8-11.8,16.4c-5.2,4.6-11.6,8.2-19.3,10.8c-7.7,2.6-16.4,3.9-26.3,3.9
	h-26.3V-227.9z M-4258-245.7h26.5c6.4,0,12-0.8,16.8-2.5c4.9-1.7,9-4,12.2-7.1c3.3-3,5.8-6.7,7.5-10.9s2.5-8.9,2.5-13.9
	c0-10.5-3.2-18.7-9.7-24.6c-6.5-5.9-16.3-8.9-29.4-8.9h-26.5v67.9H-4258z"/>
<g>
	<path class="st13" d="M-3744.1,103.2c-4.4,0-8.3,2.7-9.9,6.5c0,0,0,0.1-0.1,0.1c-0.6,1.3-0.9,2.7-0.9,4.2v97.5c0,2-0.1,3.9-0.2,5.7
		c-0.3,4.5-0.9,8.6-1.9,12.1c-1.4,5-3.5,9.1-6.2,12.4c-2.7,3.2-6.1,5.6-10,7.1c-4,1.5-8.5,2.3-13.5,2.3c-2.7,0-5-0.2-6.9-0.5
		c-0.1,0-0.3-0.1-0.4-0.1l0,0c-0.7-0.1-1.3-0.3-1.9-0.5c-0.3-0.1-0.7-0.2-1-0.3c-0.2,0-0.4,0-0.5,0c-4.2,0-7.8,2.8-9,6.6l0,0
		c-0.3,0.9-0.4,1.8-0.4,2.8c0,0.3,0,0.6,0,0.9c0.4,4,3.2,7.3,7,8.2c0.1,0,0.3,0.1,0.4,0.1c0.2,0,0.3,0.1,0.4,0.1
		c0.2,0,0.3,0.1,0.5,0.1c4.8,0.8,9.4,1.2,13.9,1.2c8.4,0,15.8-1.3,22.2-4c2.9-1.2,5.7-2.7,8.2-4.4c3-2,5.7-4.4,8.1-7.2
		c4.4-5,7.7-11.2,10-18.5c1.8-5.6,2.8-11.9,3.2-18.7c0.1-2,0.2-4,0.2-6.1v-96.5c0-3.1-1.3-6-3.3-8c-1.5-1.5-3.5-2.6-5.7-3.1
		C-3742.6,103.3-3743.4,103.2-3744.1,103.2L-3744.1,103.2z"/>
</g>
<g>
	<path class="st13" d="M-3706.5,103.2h-37.6c-4.4,0-8.2,2.6-10,6.3c0,0,0,0.1-0.1,0.1c-0.7,1.4-1,3-1,4.7v142.6c0,1.5,0.3,3,0.9,4.3
		c3-2,5.7-4.4,8.1-7.2c4.4-5,7.7-11.2,10-18.5c1.7-5.6,2.8-11.8,3.2-18.5v-85.1c0-0.7,0.1-1.3,0.2-2c0.9-5.2,5.5-9.1,10.9-9.1h15.4
		c13.1,0,22.9,3,29.4,8.8c6.5,5.9,9.7,14.1,9.7,24.6c0,5.1-0.8,9.7-2.5,13.9s-4.2,7.8-7.5,10.9c-3.3,3-7.4,5.4-12.2,7.1
		c-1,0.3-2.1,0.7-3.1,0.9c-0.3,0.1-0.5,0.1-0.8,0.2c-3.8,1.1-6.5,4.6-6.5,8.7c0,5,4.1,9.1,9.1,9.1c0.4,0,0.9,0,1.3-0.1h0.1
		c0.3,0,0.5-0.1,0.8-0.2l0,0c3-0.6,5.9-1.3,8.6-2.2c7.7-2.6,14.1-6.1,19.3-10.8c5.2-4.6,9.1-10.1,11.8-16.4c2.7-6.4,4-13.4,4-21.1
		c0-7.7-1.3-14.8-3.7-21c-2.5-6.3-6.3-11.7-11.3-16.1c-5.1-4.5-11.4-7.9-19.1-10.3C-3687.1,104.4-3696.1,103.2-3706.5,103.2
		L-3706.5,103.2z"/>
</g>
<g>
	<path class="st13" d="M-4159.5,206.7L-4159.5,206.7L-4159.5,206.7 M-4161,211.6L-4161,211.6L-4161,211.6 M-4172.4,198.9
		c-3,0-5.6,1.8-6.8,4.3c-0.5,1-0.7,10-0.7,11.1v92.9c0,6.9-0.7,12.9-2.1,17.9s-3.5,9.1-6.2,12.4c-2.7,3.2-6.1,5.6-10,7.1
		c-4,1.5-8.5,2.3-13.5,2.3c-3.8,0-6.9-0.3-9.2-1c-2.3-0.7-4.1-1-5.5-1c-1.6,0-2.8,0.4-3.6,1.2c-0.8,0.8-1.3,1.9-1.4,3.2
		c-0.2,2.1-0.5,4.3-0.7,6.5c0,0,0,0,0,0.1c-0.4,3.8,2.2,7.3,6,8.1c5.7,1.1,11.3,1.7,16.7,1.7c8.4,0,15.8-1.3,22.2-4
		c3.8-1.6,7.3-3.6,10.4-6c2.1-1.7,4.1-3.5,5.9-5.6c4.4-5,7.7-11.2,10-18.5c1.3-4.2,2.2-8.7,2.8-13.5c0.4-3.6,0.6-7.3,0.6-11.2v-93.2
		C-4157.7,205.4-4164.3,198.9-4172.4,198.9L-4172.4,198.9z"/>
</g>
<g>
	<path class="st13" d="M-4160,348.4L-4160,348.4L-4160,348.4 M-4131.4,194.7h-37.5c-5.2,0-9.6,3.6-10.8,8.4
		c-0.2,0.8-0.3,1.8-0.3,2.7v142.6c0,2.5,2.1,4.2,4.2,4.2c1,0,2.1-0.4,2.9-1.3c0.4-0.5,0.9-0.9,1.3-1.4c4.4-5,7.7-11.2,10-18.5
		c1.3-4.2,2.2-8.7,2.8-13.5v-8.6c0-0.3,0-0.5,0.1-0.8c0.1-0.7,0.3-1.4,0.6-2c0-0.1,0.1-0.2,0.1-0.3c0.2-0.5,0.3-1,0.3-1.4v-35.4l0,0
		c0-0.1,0-0.2,0-0.3v-30.3c0-14.6,11.8-26.4,26.4-26.4l0,0c13.1,0,22.9,3,29.4,8.9c6.5,5.9,9.7,14.1,9.7,24.6
		c0,5.1-0.8,9.7-2.5,13.9c-1.7,4.2-4.2,7.8-7.5,10.9c-3.3,3-7.4,5.4-12.3,7.1c-4.9,1.7-10.5,2.5-16.9,2.5h-4.5
		c-4.7,0-8.5,3.8-8.5,8.5v0.6c0,4.7,3.8,8.5,8.5,8.5h4.5c9.9,0,18.7-1.3,26.3-3.9c7.7-2.6,14.1-6.2,19.3-10.8
		c5.2-4.6,9.1-10.1,11.8-16.4c2.7-6.4,4-13.4,4-21c0-7.7-1.2-14.8-3.7-21c-2.5-6.3-6.3-11.7-11.3-16.1c-5.1-4.4-11.4-7.9-19.1-10.3
		C-4111.9,195.9-4121,194.7-4131.4,194.7L-4131.4,194.7z"/>
</g>
<rect x="-4063.9" y="-361.6" class="st14" width="324" height="324"/>
<rect x="-4063.9" y="-361.6" transform="matrix(0.7071 -0.7071 0.7071 0.7071 -1001.7259 -2817.489)" class="st14" width="324" height="324"/>
<g>
	<text transform="matrix(-1 0 0 1 -3513.0203 605.3182)" style="font-family:'Montserrat-Black'; font-size:250px;">;</text>
	<text transform="matrix(-1 0 0 -1 -3513.0203 390.9795)" style="font-family:'Montserrat-Black'; font-size:250px;">;</text>
	<path class="st2" d="M-3564.1,573.9c0-7.2,5.8-13,13-13s13,5.8,13,13"/>
</g>
<g>
	<g>
		
			<linearGradient id="SVGID_3_" gradientUnits="userSpaceOnUse" x1="-3920.2026" y1="-981.1852" x2="-3805.124" y2="-1077.7476" gradientTransform="matrix(1 0 0 -1 0 -474.3245)">
			<stop  offset="0" style="stop-color:#C315FF"/>
			<stop  offset="1" style="stop-color:#001CBF"/>
		</linearGradient>
		<path class="st15" d="M-3867.9,528.6c-9.5,0-17.4-3-23.6-9.1c-6.3-6.1-9.4-13.9-9.4-23.4s3.1-17.2,9.4-23.1
			c6.3-5.9,14.1-8.9,23.6-8.9s17.4,3,23.6,8.9c6.3,5.9,9.4,13.6,9.4,23.1s-3.1,17.3-9.4,23.4
			C-3850.5,525.6-3858.4,528.6-3867.9,528.6z M-3867.9,541.4c9.7,0,17.6,2.9,23.8,8.8c6.2,5.8,9.3,13.6,9.3,23.3
			c0,6.5-1.4,12.1-4.3,16.9c-2.8,4.8-6.8,8.4-12,10.9l12.5,42.3h-35l-17.5-37.3c-4.2-8.8-6.8-15.4-8-19.8c-1.2-4.3-1.8-8.7-1.8-13
			c0-9.7,3.1-17.4,9.3-23.3C-3885.5,544.3-3877.6,541.4-3867.9,541.4z"/>
	</g>
	<path class="st2" d="M-3881.5,573.9c0-7.2,5.8-13,13-13s13,5.8,13,13"/>
	<g>
		
			<linearGradient id="SVGID_4_" gradientUnits="userSpaceOnUse" x1="-3833.5454" y1="-940.608" x2="-3719.646" y2="-1036.1809" gradientTransform="matrix(1 0 0 -1 0 -474.3245)">
			<stop  offset="0" style="stop-color:#C315FF"/>
			<stop  offset="1" style="stop-color:#001CBF"/>
		</linearGradient>
		<path class="st16" d="M-3736.8,582.3c-3.3,3-7.5,5.3-12.4,6.9s-10,2.4-15.4,2.4c-12.3,0-21.8-3.3-28.5-10s-10-16.1-10-28.3v-79.5
			h-23.5v-15h23.5V430h17.8v28.8h40v15h-40v78.5c0,7.8,2,13.8,5.9,17.9c3.9,4.1,9.5,6.1,16.9,6.1c3.7,0,7.2-0.6,10.6-1.8
			c3.4-1.2,6.4-2.8,8.9-5L-3736.8,582.3z"/>
	</g>
</g>
<rect x="-3901.3" y="430" class="st17" width="213.6" height="213.6"/>
<g>
	
		<linearGradient id="SVGID_5_" gradientUnits="userSpaceOnUse" x1="-3712.4995" y1="-1037.27" x2="-3691.7966" y2="-1054.642" gradientTransform="matrix(1 0 0 -1 0 -474.3245)">
		<stop  offset="0" style="stop-color:#C315FF"/>
		<stop  offset="1" style="stop-color:#001CBF"/>
	</linearGradient>
	<path class="st18" d="M-3711.6,581.3c-2.6-2.7-3.9-5.9-3.9-9.8c0-3.8,1.3-7,3.9-9.6c2.6-2.6,5.7-3.9,9.4-3.9s6.8,1.3,9.5,3.9
		c2.7,2.6,4,5.8,4,9.6c0,3.8-1.3,7.1-4,9.8s-5.8,4-9.5,4S-3709,584-3711.6,581.3z"/>
</g>
<linearGradient id="SVGID_6_" gradientUnits="userSpaceOnUse" x1="-1088.353" y1="-719.2621" x2="-1682.2469" y2="-11.4868" gradientTransform="matrix(1 0 0 -1 0 -474.3245)">
	<stop  offset="0" style="stop-color:#D470F1"/>
	<stop  offset="1" style="stop-color:#FF5477"/>
</linearGradient>
<path class="st19" d="M-1810.1,123.3v-464.5c0-17,13.8-30.8,30.8-30.8h788c17,0,30.8,13.8,30.8,30.8v464.5c0,17-13.8,30.8-30.8,30.8
	h-788C-1796.3,154.1-1810.1,140.3-1810.1,123.3z"/>
<image style="overflow:visible;enable-background:new    ;" width="219" height="208" xlink:href="A2E5105A.jpeg"  transform="matrix(2.0508 0 0 2.0508 -401.9265 -450.8681)">
</image>
<circle class="st17" cx="-700" cy="-214.9" r="198.7"/>
<circle class="st20" cx="-687.8" cy="-237.6" r="212.6"/>
<circle class="st20" cx="-558.8" cy="-109.9" r="83.5"/>
<linearGradient id="SVGID_7_" gradientUnits="userSpaceOnUse" x1="211.3103" y1="-419.6105" x2="423.9013" y2="-51.392" gradientTransform="matrix(1 0 0 -1 0 -474.3245)">
	<stop  offset="0" style="stop-color:#D470F1"/>
	<stop  offset="1" style="stop-color:#FF5477"/>
</linearGradient>
<path class="st21" d="M316.9-451.8c-63.9,0-121.2,28.2-160.2,72.8c5.8,7.5,9.3,16.9,9.3,27.1c0,24.3-19.7,44.1-44.1,44.1
	c-2.1,0-4.2-0.2-6.2-0.4c-7.4,21.6-11.4,44.8-11.4,69c0,117.4,95.2,212.5,212.6,212.5c28.9,0,56.4-5.8,81.4-16.2
	c-21.7-15.1-36-40.2-36-68.7c0-46.1,37.4-83.6,83.5-83.6c28.2,0,53.1,13.9,68.2,35.3c9.9-24.5,15.3-51.4,15.3-79.4
	C529.4-356.6,434.3-451.8,316.9-451.8z M272.8-229.6c-24.3,0-44.1-19.7-44.1-44.1s19.7-44.1,44.1-44.1s44.1,19.7,44.1,44.1
	S297.1-229.6,272.8-229.6z"/>
<linearGradient id="SVGID_8_" gradientUnits="userSpaceOnUse" x1="417.5539" y1="-396.6061" x2="474.2452" y2="-329.0439" gradientTransform="matrix(1 0 0 -1 0 -474.3245)">
	<stop  offset="0" style="stop-color:#D470F1"/>
	<stop  offset="1" style="stop-color:#FF5477"/>
</linearGradient>
<path class="st22" d="M445.9-155.6c-24.3,0-44.1,19.7-44.1,44.1c0,24.3,19.7,44.1,44.1,44.1l0,0c24.3,0,44.1-19.7,44.1-44.1
	C490-135.9,470.2-155.6,445.9-155.6z M456.3-90c-2.2,0.6-4.7,0.9-7.6,0.9c-6.2,0-10.9-1.7-14.1-5.1s-4.8-8.3-4.8-14.6
	c0-0.9,0-1.8,0.1-2.7c0.2-2.1,0.6-4,1.3-5.7c1-2.5,2.3-4.5,4-6.2s3.8-3,6.1-3.8c2.4-0.9,4.9-1.3,7.7-1.3c1.6,0,3.1,0.1,4.4,0.4
	s2.5,0.5,3.4,0.8c1,0.3,1.8,0.6,2.5,1c0.6,0.3,1.1,0.6,1.4,0.8l-2.5,6.9c-1.2-0.6-2.5-1.2-4.1-1.6c-1.5-0.4-3.3-0.7-5.3-0.7
	c-1.3,0-2.6,0.2-3.9,0.7c-1.3,0.4-2.4,1.1-3.3,2.1c-1,1-1.8,2.2-2.3,3.8c-0.3,0.9-0.6,1.9-0.7,3c-0.1,0.8-0.2,1.6-0.2,2.5
	c0,1.8,0.2,3.4,0.6,4.9s1,2.8,1.9,3.9s2,2,3.4,2.6s3.1,1,5,1c1.2,0,2.3-0.1,3.3-0.2s1.9-0.3,2.6-0.5c0.8-0.2,1.4-0.4,2-0.7
	c0.6-0.3,1.1-0.5,1.6-0.7l2.4,6.8C460.2-91.2,458.5-90.6,456.3-90z"/>
<linearGradient id="SVGID_9_" gradientUnits="userSpaceOnUse" x1="291.4" y1="-168.5744" x2="529.4" y2="-168.5744" gradientTransform="matrix(1 0 0 -1 0 -474.3245)">
	<stop  offset="0" style="stop-color:#7079F1"/>
	<stop  offset="1" style="stop-color:#54EDFF"/>
</linearGradient>
<path class="st23" d="M529.4-239.2c0,28.1-5.5,54.9-15.3,79.4c-10.1-14.3-24.6-25.2-41.4-30.9c3.6-15.6,5.6-31.8,5.6-48.5
	c0-108.7-81.6-198.4-186.9-211c8.4-1,16.9-1.5,25.6-1.5C434.3-451.8,529.4-356.6,529.4-239.2z"/>
<linearGradient id="SVGID_10_" gradientUnits="userSpaceOnUse" x1="248.2996" y1="-1012.7789" x2="460.9214" y2="-644.5071" gradientTransform="matrix(1 0 0 -1 0 -474.3245)">
	<stop  offset="0" style="stop-color:#D470F1"/>
	<stop  offset="1" style="stop-color:#FF5477"/>
</linearGradient>
<path class="st24" d="M353.9,141.3c-63.9,0-121.2,28.2-160.2,72.8c5.8,7.5,9.3,16.9,9.3,27.1c0,24.3-19.7,44.1-44.1,44.1
	c-2.1,0-4.2-0.2-6.2-0.4c-7.4,21.6-11.4,44.8-11.4,69c0,117.4,95.2,212.6,212.6,212.6c28.9,0,56.4-5.8,81.4-16.2
	c-21.7-15.1-36-40.2-36-68.7c0-46.1,37.4-83.6,83.5-83.6c28.2,0,53.1,13.9,68.2,35.3c9.9-24.5,15.3-51.4,15.3-79.4
	C566.4,236.5,471.3,141.3,353.9,141.3z M309.8,363.5c-24.3,0-44.1-19.7-44.1-44.1s19.7-44.1,44.1-44.1s44.1,19.7,44.1,44.1
	S334.1,363.5,309.8,363.5z"/>
<linearGradient id="SVGID_11_" gradientUnits="userSpaceOnUse" x1="-685.3168" y1="-1191.672" x2="-341.3727" y2="-595.9432" gradientTransform="matrix(1 0 0 -1 0 -474.3245)">
	<stop  offset="0" style="stop-color:#D470F1"/>
	<stop  offset="1" style="stop-color:#FF5477"/>
</linearGradient>
<path class="st25" d="M-514.7,74.8c-103.4,0-196.1,45.6-259.2,117.8c9.5,12.1,15.1,27.3,15.1,43.9c0,39.4-31.9,71.3-71.3,71.3
	c-3.4,0-6.8-0.2-10-0.7c-12,35-18.5,72.6-18.5,111.6c0,189.9,154,343.9,343.9,343.9c46.7,0,91.2-9.3,131.8-26.1
	c-35.2-24.4-58.2-65.1-58.2-111.1c0-74.7,60.5-135.2,135.2-135.2c45.6,0,85.9,22.5,110.4,57.1c16-39.7,24.8-83.1,24.8-128.5
	C-170.8,228.8-324.8,74.8-514.7,74.8z M-586.1,434.3c-39.4,0-71.3-31.9-71.3-71.3s31.9-71.3,71.3-71.3c39.4,0,71.3,31.9,71.3,71.3
	S-546.7,434.3-586.1,434.3z"/>
<linearGradient id="SVGID_12_" gradientUnits="userSpaceOnUse" x1="454.5524" y1="-989.7078" x2="511.2476" y2="-922.1411" gradientTransform="matrix(1 0 0 -1 0 -474.3245)">
	<stop  offset="0" style="stop-color:#D470F1"/>
	<stop  offset="1" style="stop-color:#FF5477"/>
</linearGradient>
<circle class="st26" cx="482.9" cy="481.6" r="44.1"/>
<linearGradient id="SVGID_13_" gradientUnits="userSpaceOnUse" x1="479.4306" y1="-1004.1091" x2="522.8114" y2="-952.4098" gradientTransform="matrix(1 0 0 -1 0 -474.3245)">
	<stop  offset="0" style="stop-color:#D470F1"/>
	<stop  offset="1" style="stop-color:#FF5477"/>
</linearGradient>
<polygon class="st27" points="527,481.6 527,569.7 438.8,481.6 "/>
<linearGradient id="SVGID_14_" gradientUnits="userSpaceOnUse" x1="328.4" y1="-761.6744" x2="566.4" y2="-761.6744" gradientTransform="matrix(1 0 0 -1 0 -474.3245)">
	<stop  offset="0" style="stop-color:#7079F1"/>
	<stop  offset="1" style="stop-color:#54EDFF"/>
</linearGradient>
<path class="st28" d="M566.4,353.9c0,28.1-5.5,54.9-15.3,79.4c-10.1-14.3-24.6-25.2-41.4-30.9c3.6-15.6,5.6-31.8,5.6-48.5
	c0-108.7-81.6-198.4-186.9-211c8.4-1,16.9-1.5,25.6-1.5C471.3,141.3,566.4,236.5,566.4,353.9z"/>
<text transform="matrix(1 0 0 1 464.0786 503.2443)" class="st2 st29 st30">C</text>
<circle class="st20" cx="-558.8" cy="-109.9" r="44.1"/>
<circle class="st31" cx="353.9" cy="353.9" r="343.9"/>
</svg>
